<mxfile host="Electron" agent="Mozilla/5.0 (Windows NT 10.0; Win64; x64) AppleWebKit/537.36 (KHTML, like Gecko) draw.io/24.7.17 Chrome/128.0.6613.36 Electron/32.0.1 Safari/537.36" version="24.7.17">
  <diagram name="Страница — 1" id="IXGdZ1MitJRPSFDrilDG">
    <mxGraphModel dx="1050" dy="629" grid="1" gridSize="10" guides="1" tooltips="1" connect="1" arrows="1" fold="1" page="1" pageScale="1" pageWidth="827" pageHeight="1169" math="0" shadow="0">
      <root>
        <mxCell id="0" />
        <mxCell id="1" parent="0" />
        <mxCell id="uRGY2tBIXgTAH7VNT854-1" value="Модуль пользовательского интерфейса" style="html=1;whiteSpace=wrap;" vertex="1" parent="1">
          <mxGeometry x="320" y="80" width="140" height="70" as="geometry" />
        </mxCell>
        <mxCell id="uRGY2tBIXgTAH7VNT854-3" value="" style="edgeStyle=orthogonalEdgeStyle;rounded=0;orthogonalLoop=1;jettySize=auto;html=1;endArrow=none;endFill=0;" edge="1" parent="1" source="uRGY2tBIXgTAH7VNT854-2" target="uRGY2tBIXgTAH7VNT854-1">
          <mxGeometry relative="1" as="geometry" />
        </mxCell>
        <mxCell id="uRGY2tBIXgTAH7VNT854-7" value="" style="edgeStyle=orthogonalEdgeStyle;rounded=0;orthogonalLoop=1;jettySize=auto;html=1;endArrow=none;endFill=0;" edge="1" parent="1" source="uRGY2tBIXgTAH7VNT854-2" target="uRGY2tBIXgTAH7VNT854-6">
          <mxGeometry relative="1" as="geometry" />
        </mxCell>
        <mxCell id="uRGY2tBIXgTAH7VNT854-2" value="Рабочий модуль" style="html=1;whiteSpace=wrap;" vertex="1" parent="1">
          <mxGeometry x="335" y="250" width="110" height="50" as="geometry" />
        </mxCell>
        <mxCell id="uRGY2tBIXgTAH7VNT854-5" value="" style="edgeStyle=orthogonalEdgeStyle;rounded=0;orthogonalLoop=1;jettySize=auto;html=1;endArrow=none;endFill=0;" edge="1" parent="1" source="uRGY2tBIXgTAH7VNT854-4" target="uRGY2tBIXgTAH7VNT854-2">
          <mxGeometry relative="1" as="geometry" />
        </mxCell>
        <mxCell id="uRGY2tBIXgTAH7VNT854-4" value="Модуль коммуникации" style="html=1;whiteSpace=wrap;" vertex="1" parent="1">
          <mxGeometry x="130" y="250" width="110" height="50" as="geometry" />
        </mxCell>
        <mxCell id="uRGY2tBIXgTAH7VNT854-6" value="Модуль правил" style="html=1;whiteSpace=wrap;" vertex="1" parent="1">
          <mxGeometry x="540" y="250" width="110" height="50" as="geometry" />
        </mxCell>
      </root>
    </mxGraphModel>
  </diagram>
</mxfile>
